<svg id="Layer_1" data-name="Layer 1" xmlns="http://www.w3.org/2000/svg" viewBox="0 0 250 249.34"><title>Globe</title><path d="M49.53,178.53a142.57,142.57,0,0,0-29.28,15A123.94,123.94,0,0,1,0,131.57H43.51A225.43,225.43,0,0,0,49.53,178.53Z" transform="translate(0 -0.33)"/><path d="M43.51,118.4H0A123.63,123.63,0,0,1,20.25,56.45a142.57,142.57,0,0,0,29.28,15A225.31,225.31,0,0,0,43.51,118.4Z" transform="translate(0 -0.33)"/><path d="M53.09,191.38c6.55,20.78,16.17,38.2,27.89,50.72-.36-.14-.72-.27-1.08-.43-1.22-.46-2.44-1-3.63-1.45l-2.93-1.29-3.55-1.68c-1-.46-1.91-.95-2.87-1.44-1.15-.63-2.27-1.26-3.42-1.88-.93-.53-1.85-1.06-2.77-1.62-1.12-.65-2.24-1.35-3.33-2.07-.89-.56-1.77-1.15-2.66-1.75-1.09-.72-2.18-1.48-3.23-2.27l-2.57-1.88c-1-.82-2.08-1.64-3.1-2.47-.82-.69-1.64-1.35-2.43-2-1-.89-2-1.82-3-2.71-.76-.72-1.52-1.41-2.28-2.1-1-1-2-2-2.93-3-.69-.72-1.41-1.41-2.1-2.17-1-1-1.91-2.14-2.87-3.23-.63-.72-1.28-1.45-1.88-2.2-.1-.1-.16-.2-.26-.3A127.19,127.19,0,0,1,53.09,191.38Z" transform="translate(0 -0.33)"/><path d="M53.09,58.62a127.19,127.19,0,0,1-25-12.81,3.17,3.17,0,0,0,.26-.33c.6-.72,1.22-1.41,1.85-2.11.95-1.12,1.91-2.24,2.9-3.29.69-.76,1.41-1.45,2.1-2.17,1-1,1.95-2,2.93-3,.76-.72,1.52-1.38,2.28-2.11,1-.88,2-1.81,3-2.7.79-.65,1.61-1.35,2.43-2,1-.83,2-1.65,3.1-2.47l2.57-1.88c1.09-.79,2.14-1.55,3.23-2.27l2.66-1.78c1.12-.69,2.21-1.39,3.33-2,.92-.56,1.84-1.09,2.8-1.62,1.12-.66,2.27-1.25,3.39-1.88,1-.49,1.91-1,2.9-1.44,1.15-.56,2.34-1.12,3.49-1.65,1-.46,2-.89,3-1.32,1.19-.49,2.41-1,3.63-1.45.36-.16.72-.29,1.08-.43C69.26,20.42,59.64,37.84,53.09,58.62Z" transform="translate(0 -0.33)"/><path d="M118.84.33V71.18a209.37,209.37,0,0,1-53.23-8.26C76.46,28.34,96.05,4,118.84.33Z" transform="translate(0 -0.33)"/><path d="M184.39,62.92a209.3,209.3,0,0,1-53.23,8.26V.33C154,4,173.55,28.34,184.39,62.92Z" transform="translate(0 -0.33)"/><path d="M65.61,187.08a209.37,209.37,0,0,1,53.23-8.26v70.85C96.05,246,76.46,221.66,65.61,187.08Z" transform="translate(0 -0.33)"/><path d="M184.39,187.08C173.55,221.66,154,246,131.16,249.67V178.82A209.3,209.3,0,0,1,184.39,187.08Z" transform="translate(0 -0.33)"/><path d="M56.66,131.55h62.18v34.09a221.66,221.66,0,0,0-56.72,8.62A213.51,213.51,0,0,1,56.66,131.55Z" transform="translate(0 -0.33)"/><path d="M193.3,131.55a210.7,210.7,0,0,1-5.42,42.71,221.32,221.32,0,0,0-56.72-8.62V131.55Z" transform="translate(0 -0.33)"/><path d="M62.12,75.69a219.48,219.48,0,0,0,56.72,8.67v34.05H56.66A214.47,214.47,0,0,1,62.12,75.69Z" transform="translate(0 -0.33)"/><path d="M193.3,118.41H131.16v-34a219.14,219.14,0,0,0,56.72-8.67A211.63,211.63,0,0,1,193.3,118.41Z" transform="translate(0 -0.33)"/><path d="M196.91,191.38a126.36,126.36,0,0,1,25,12.81,1.87,1.87,0,0,0-.26.33c-.56.69-1.16,1.32-1.75,2-1,1.15-2,2.3-3,3.42-.65.69-1.35,1.39-2,2-1,1.06-2,2.08-3,3.07-.73.69-1.45,1.35-2.21,2-1,.92-2,1.88-3.1,2.77-.75.65-1.54,1.31-2.33,1.94-1.06.85-2.11,1.71-3.2,2.57-.82.62-1.68,1.22-2.5,1.81-1.09.79-2.18,1.58-3.3,2.34l-2.6,1.71c-1.12.72-2.24,1.42-3.39,2.11l-2.73,1.58c-1.16.62-2.31,1.28-3.46,1.88-1,.49-1.88,1-2.83,1.44-1.19.56-2.37,1.12-3.59,1.68l-2.87,1.29c-1.22.49-2.44,1-3.69,1.48l-1.08.4C180.74,229.58,190.36,212.19,196.91,191.38Z" transform="translate(0 -0.33)"/><path d="M196.91,58.62C190.36,37.84,180.74,20.42,169,7.9l1.08.4c1.25.49,2.47,1,3.69,1.48l2.87,1.29c1.22.56,2.4,1.12,3.59,1.68.95.46,1.87.95,2.83,1.44,1.15.6,2.3,1.26,3.46,1.88l2.73,1.58c1.15.69,2.27,1.39,3.36,2.11.89.56,1.78,1.15,2.63,1.71,1.12.76,2.21,1.55,3.3,2.31.82.62,1.68,1.22,2.5,1.88,1.05.82,2.11,1.64,3.16,2.5.79.66,1.62,1.32,2.37,2,1.06.89,2.08,1.82,3.07,2.74.75.69,1.51,1.38,2.24,2.07,1,1,2,2,3,3,.66.72,1.39,1.42,2,2.14,1,1.05,2,2.21,2.94,3.33.59.69,1.21,1.38,1.81,2.07a3.17,3.17,0,0,0,.26.33A126.36,126.36,0,0,1,196.91,58.62Z" transform="translate(0 -0.33)"/><path d="M206.49,131.57H250a123.94,123.94,0,0,1-20.25,62,142.57,142.57,0,0,0-29.28-15A225.43,225.43,0,0,0,206.49,131.57Z" transform="translate(0 -0.33)"/><path d="M200.47,71.47a142.57,142.57,0,0,0,29.28-15,123.63,123.63,0,0,1,20.25,62H206.49A225.31,225.31,0,0,0,200.47,71.47Z" transform="translate(0 -0.33)"/></svg>